HIERARCHY
ROOT Base
{
  OFFSET 12.1822 -2.77335 -26.5548
  CHANNELS 6 Xposition Yposition Zposition Zrotation Xrotation Yrotation
  JOINT Hips
  {
    OFFSET 0 103.797 1.28397
    CHANNELS 6 Xposition Yposition Zposition Zrotation Xrotation Yrotation
    JOINT Spine
    {
      OFFSET 0 10.1816 0.1315
      CHANNELS 6 Xposition Yposition Zposition Zrotation Xrotation Yrotation
      JOINT Spine1
      {
        OFFSET 0 10.0835 -1.0008
        CHANNELS 6 Xposition Yposition Zposition Zrotation Xrotation Yrotation
        JOINT Spine2
        {
          OFFSET 0 9.1 -1.3734
          CHANNELS 6 Xposition Yposition Zposition Zrotation Xrotation Yrotation
          JOINT Neck1
          {
            OFFSET 0 16.6717 -2.5162
            CHANNELS 6 Xposition Yposition Zposition Zrotation Xrotation Yrotation
            JOINT Neck2
            {
              OFFSET 0 9.6179 1.685
              CHANNELS 6 Xposition Yposition Zposition Zrotation Xrotation Yrotation
              JOINT Skull
              {
                OFFSET 0 7.59293 2.585
                CHANNELS 6 Xposition Yposition Zposition Zrotation Xrotation Yrotation
                JOINT LeftEye
                {
                  OFFSET 3.0676 -1.18343 6.6986
                  CHANNELS 6 Xposition Yposition Zposition Zrotation Xrotation Yrotation
                  End Site
                  {
                    OFFSET 0 0 0
                  }
                }
                JOINT RightEye
                {
                  OFFSET -3.0676 -1.18343 6.6985
                  CHANNELS 6 Xposition Yposition Zposition Zrotation Xrotation Yrotation
                  End Site
                  {
                    OFFSET 0 0 0
                  }
                }
              }
            }
          }
          JOINT LeftShoulder
          {
            OFFSET 4.5704 10.946 -2.628
            CHANNELS 6 Xposition Yposition Zposition Zrotation Xrotation Yrotation
            JOINT LeftArm
            {
              OFFSET 10.5924 -0.5246 -2.2321
              CHANNELS 6 Xposition Yposition Zposition Zrotation Xrotation Yrotation
              JOINT LeftForeArm
              {
                OFFSET 27.8415 -0.0001 0
                CHANNELS 6 Xposition Yposition Zposition Zrotation Xrotation Yrotation
                JOINT LeftHand
                {
                  OFFSET 28.3288 0 0
                  CHANNELS 6 Xposition Yposition Zposition Zrotation Xrotation Yrotation
                  JOINT LeftHandThumb1
                  {
                    OFFSET 2.4661 -1.575 2.6824
                    CHANNELS 6 Xposition Yposition Zposition Zrotation Xrotation Yrotation
                    JOINT LeftHandThumb2
                    {
                      OFFSET 3.2298 -1.8647 1.8647
                      CHANNELS 6 Xposition Yposition Zposition Zrotation Xrotation Yrotation
                      End Site
                      {
                        OFFSET 2.6526 -1.5315 1.5315
                      }
                    }
                  }
                  JOINT LeftHandIndex1
                  {
                    OFFSET 9.1093 -0.5171 2.2601
                    CHANNELS 6 Xposition Yposition Zposition Zrotation Xrotation Yrotation
                    JOINT LeftHandIndex2
                    {
                      OFFSET 3.6764 0 0
                      CHANNELS 6 Xposition Yposition Zposition Zrotation Xrotation Yrotation
                      End Site
                      {
                        OFFSET 2.8831 0 0
                      }
                    }
                  }
                  JOINT LeftHandMiddle1
                  {
                    OFFSET 9.5334 0 0
                    CHANNELS 6 Xposition Yposition Zposition Zrotation Xrotation Yrotation
                    JOINT LeftHandMiddle2
                    {
                      OFFSET 3.6982 0 0
                      CHANNELS 6 Xposition Yposition Zposition Zrotation Xrotation Yrotation
                      End Site
                      {
                        OFFSET 2.9509 0 0
                      }
                    }
                  }
                  JOINT LeftHandRing1
                  {
                    OFFSET 9.1045 -0.0439 -1.8651
                    CHANNELS 6 Xposition Yposition Zposition Zrotation Xrotation Yrotation
                    JOINT LeftHandRing2
                    {
                      OFFSET 3.154 0 0
                      CHANNELS 6 Xposition Yposition Zposition Zrotation Xrotation Yrotation
                      End Site
                      {
                        OFFSET 2.9377 0 0
                      }
                    }
                  }
                  JOINT LeftHandPinky1
                  {
                    OFFSET 8.0778 -0.4887 -3.8061
                    CHANNELS 6 Xposition Yposition Zposition Zrotation Xrotation Yrotation
                    JOINT LeftHandPinky2
                    {
                      OFFSET 3.6 0 0
                      CHANNELS 6 Xposition Yposition Zposition Zrotation Xrotation Yrotation
                      End Site
                      {
                        OFFSET 2.1142 0 0
                      }
                    }
                  }
                }
              }
            }
          }
          JOINT RightShoulder
          {
            OFFSET -4.57 10.9462 -2.628
            CHANNELS 6 Xposition Yposition Zposition Zrotation Xrotation Yrotation
            JOINT RightArm
            {
              OFFSET -10.5928 -0.5248 -2.2321
              CHANNELS 6 Xposition Yposition Zposition Zrotation Xrotation Yrotation
              JOINT RightForeArm
              {
                OFFSET -27.8415 0 0
                CHANNELS 6 Xposition Yposition Zposition Zrotation Xrotation Yrotation
                JOINT RightHand
                {
                  OFFSET -28.3288 0 0.0001
                  CHANNELS 6 Xposition Yposition Zposition Zrotation Xrotation Yrotation
                  JOINT RightHandPinky1
                  {
                    OFFSET -8.0767 -0.4885 -3.806
                    CHANNELS 6 Xposition Yposition Zposition Zrotation Xrotation Yrotation
                    JOINT RightHandPinky2
                    {
                      OFFSET -3.6 0 0.0001
                      CHANNELS 6 Xposition Yposition Zposition Zrotation Xrotation Yrotation
                      End Site
                      {
                        OFFSET -2.1142 0 0
                      }
                    }
                  }
                  JOINT RightHandRing1
                  {
                    OFFSET -9.1036 -0.0439 -1.8651
                    CHANNELS 6 Xposition Yposition Zposition Zrotation Xrotation Yrotation
                    JOINT RightHandRing2
                    {
                      OFFSET -3.154 0 0
                      CHANNELS 6 Xposition Yposition Zposition Zrotation Xrotation Yrotation
                      End Site
                      {
                        OFFSET -2.9377 0 0
                      }
                    }
                  }
                  JOINT RightHandMiddle1
                  {
                    OFFSET -9.5325 0 0
                    CHANNELS 6 Xposition Yposition Zposition Zrotation Xrotation Yrotation
                    JOINT RightHandMiddle2
                    {
                      OFFSET -3.6982 0 0
                      CHANNELS 6 Xposition Yposition Zposition Zrotation Xrotation Yrotation
                      End Site
                      {
                        OFFSET -2.9509 0 0
                      }
                    }
                  }
                  JOINT RightHandIndex1
                  {
                    OFFSET -9.1083 -0.5168 2.2601
                    CHANNELS 6 Xposition Yposition Zposition Zrotation Xrotation Yrotation
                    JOINT RightHandIndex2
                    {
                      OFFSET -3.6764 0 0
                      CHANNELS 6 Xposition Yposition Zposition Zrotation Xrotation Yrotation
                      End Site
                      {
                        OFFSET -2.8831 0 0
                      }
                    }
                  }
                  JOINT RightHandThumb1
                  {
                    OFFSET -2.4648 -1.5727 2.6826
                    CHANNELS 6 Xposition Yposition Zposition Zrotation Xrotation Yrotation
                    JOINT RightHandThumb2
                    {
                      OFFSET -3.2298 -1.8647 1.8647
                      CHANNELS 6 Xposition Yposition Zposition Zrotation Xrotation Yrotation
                      End Site
                      {
                        OFFSET -2.6526 -1.5314 1.5314
                      }
                    }
                  }
                }
              }
            }
          }
        }
      }
    }
    JOINT LeftUpLeg
    {
      OFFSET 8.2078 -6.7517 -1.5996
      CHANNELS 6 Xposition Yposition Zposition Zrotation Xrotation Yrotation
      JOINT LeftLeg
      {
        OFFSET 0 -44.3705 0.2846
        CHANNELS 6 Xposition Yposition Zposition Zrotation Xrotation Yrotation
        JOINT LeftFoot
        {
          OFFSET 0 -44.4279 -2.9822
          CHANNELS 6 Xposition Yposition Zposition Zrotation Xrotation Yrotation
          End Site
          {
            OFFSET 0 -8.7287 10.7106
          }
        }
      }
    }
    JOINT RightUpLeg
    {
      OFFSET -8.2078 -6.7517 -1.5996
      CHANNELS 6 Xposition Yposition Zposition Zrotation Xrotation Yrotation
      JOINT RightLeg
      {
        OFFSET 0 -44.3705 0.2862
        CHANNELS 6 Xposition Yposition Zposition Zrotation Xrotation Yrotation
        JOINT RightFoot
        {
          OFFSET 0 -44.4277 -2.9838
          CHANNELS 6 Xposition Yposition Zposition Zrotation Xrotation Yrotation
          End Site
          {
            OFFSET 0 -8.7287 10.7106
          }
        }
      }
    }
  }
}
MOTION
Frames:	5
Frame Time:	0.0416667
-3.01066 -20.4841 -12.2316 -1.69402 7.40968 2.32591 4.44089e-016 103.797 1.28397 1.98785e-016 0 -0 4.44089e-016 10.1816 0.1315 0.130192 1.49346 -1.8394 0 10.0835 -1.0008 3.0742 4.30249 -3.13205 0 9.1 -1.3734 3.00245 4.30965 -3.19078 8.88178e-016 16.6717 -2.5162 -0.42888 -3.33501 1.12855 0 9.6179 1.685 -0.428872 -3.33495 1.12855 0 7.59293 2.585 -0.428874 -3.335 1.12854 3.0676 -1.18343 6.6986 -9.93923e-017 0 3.97569e-016 -3.0676 -1.18343 6.6985 -9.93923e-017 0 3.97569e-016 4.5704 10.946 -2.628 1.6404 -0.650792 7.41151 10.5924 -0.5246 -2.2321 -61.2683 -14.8358 -4.51964 27.8415 -0.0001 8.88178e-016 -11.9953 -7.59683 -115.419 28.3288 -1.42109e-014 0 -36.0893 -68.4113 -38.4348 2.4661 -1.575 2.6824 12.2586 10.8203 16.9658 3.2298 -1.8647 1.8647 -0.176528 1.13019 5.70391 9.1093 -0.5171 2.2601 -87.3824 -6.6368 5.81867 3.6764 0 1.42109e-014 -85.2699 -5.37335 5.83554 9.5334 3.55271e-015 0 -78.9568 -7.74519 1.37844 3.6982 0 1.42109e-014 -66.9533 -3.56375 5.38674 9.1045 -0.0439 -1.8651 -86.1106 -8.5503 0.905513 3.154 0 -1.42109e-014 -61.177 -3.03265 5.12803 8.0778 -0.4887 -3.8061 -83.7628 -10.2239 -1.91509 3.6 0 -1.42109e-014 -94.5988 -6.32401 5.83662 -4.57 10.9462 -2.628 13.1676 -1.31011 -7.82624 -10.5928 -0.5248 -2.2321 49.0116 -12.6052 14.5029 -27.8415 -1.42109e-014 0 11.9436 -7.62088 115.03 -28.3288 -7.10543e-015 0.0001 49.6142 -53.1698 46.6937 -8.0767 -0.4885 -3.806 83.9833 -9.22426 12.1335 -3.6 -1.42109e-014 0.0001 95.1461 -1.53096 -2.9373 -9.1036 -0.0439 -1.8651 85.6078 -5.6934 0.788038 -3.154 1.42109e-014 1.42109e-014 61.561 0.137833 -2.59275 -9.5325 0 1.42109e-014 78.3489 -4.50909 -3.27702 -3.6982 1.42109e-014 1.42109e-014 67.3973 -0.133261 -2.72219 -9.1083 -0.5168 2.2601 87.274 0.303131 -4.9538 -3.6764 1.42109e-014 1.42109e-014 85.7809 -1.05039 -2.94085 -2.4648 -1.5727 2.6826 -10.6023 9.48972 -15.5271 -3.2298 -1.8647 1.8647 -0.801563 1.74206 -7.35649 8.2078 -6.7517 -1.5996 5.51479 19.7353 15.4424 -3.55271e-015 -44.3705 0.2846 8.98917 24.3991 -9.74437 0 -44.4279 -2.9822 -1.25121 -38.4036 -2.80738 -8.2078 -6.7517 -1.5996 -3.29193 -60.345 -4.5729 0 -44.3705 0.2862 -0.860158 75.0935 -1.82152 0 -44.4277 -2.9838 -4.97984 -23.1199 1.42135 
0.184736 -14.3463 -10.4651 -0.120372 6.73357 6.93083 -2.22045e-016 103.797 1.28397 -1.98785e-016 -1.59028e-015 -3.18055e-015 -2.22045e-016 10.1816 0.1315 1.06684 2.71217 -2.20419 -4.44089e-016 10.0835 -1.0008 1.91826 2.62787 -3.24297 0 9.1 -1.3734 1.88513 2.61462 -3.24464 8.88178e-016 16.6717 -2.5162 -0.844007 -2.66859 0.887326 -8.88178e-016 9.6179 1.685 -0.84401 -2.66858 0.887327 0 7.59293 2.585 -0.844005 -2.66858 0.887321 3.0676 -1.18343 6.6986 -8.69683e-017 -1.59028e-015 9.93923e-017 -3.0676 -1.18343 6.6985 -8.69683e-017 -1.59028e-015 9.93923e-017 4.5704 10.946 -2.628 1.22493 -0.233089 3.86706 10.5924 -0.5246 -2.2321 -59.5339 -14.9539 -14.7648 27.8415 -0.0001 0 -11.3802 -7.86239 -110.839 28.3288 0 -1.42109e-014 -31.9499 -66.9649 -33.8777 2.4661 -1.575 2.6824 11.7842 10.812 16.4309 3.2298 -1.8647 1.8647 -0.129388 1.20159 5.76199 9.1093 -0.5171 2.2601 -84.6326 -6.1337 5.919 3.6764 0 0 -83.2508 -5.16821 5.81451 9.5334 -3.55271e-015 1.42109e-014 -76.8007 -7.48017 1.62899 3.6982 -1.42109e-014 0 -65.6134 -3.43836 5.33134 9.1045 -0.0439 -1.8651 -84.2554 -8.32319 1.18841 3.154 0 1.42109e-014 -60.2372 -2.94889 5.08078 8.0778 -0.4887 -3.8061 -82.1265 -9.97542 -1.62422 3.6 0 -1.42109e-014 -93.4012 -6.20219 5.8448 -4.57 10.9462 -2.628 10.3571 -1.03046 -7.13517 -10.5928 -0.5248 -2.2321 49.4686 -12.5282 21.5161 -27.8415 0 3.55271e-015 11.8863 -7.6462 114.6 -28.3288 0 0.0001 46.0927 -56.377 43.8389 -8.0767 -0.4885 -3.806 78.0762 -9.38116 10.0957 -3.6 0 0.0001 91.0202 -1.31883 -2.94852 -9.1036 -0.0439 -1.8651 80.4832 -5.13456 -0.198642 -3.154 0 -1.42109e-014 58.7804 0.262045 -2.52154 -9.5325 -5.32907e-015 0 73.8306 -4.0678 -3.62531 -3.6982 1.42109e-014 0 64.9553 -0.0182455 -2.67137 -9.1083 -0.5168 2.2601 82.9341 1.01705 -4.35402 -3.6764 0 0 82.811 -0.898183 -2.92557 -2.4648 -1.5727 2.6826 -10.6974 9.74905 -16.0173 -3.2298 -1.8647 1.8647 -0.827615 1.76071 -7.33942 8.2078 -6.7517 -1.5996 3.98015 15.7643 11.7625 -3.55271e-015 -44.3705 0.2846 10.5715 23.9874 -8.32286 3.55271e-015 -44.4279 -2.9822 0.425451 -9.54936 -2.00189 -8.2078 -6.7517 -1.5996 -7.51997 -51.4478 -7.72295 1.77636e-015 -44.3705 0.2862 -1.83583 63.3528 -3.34233 1.77636e-015 -44.4277 -2.9838 -5.43297 -18.8232 1.50938 
2.78971 -7.21262 -7.62068 1.08873 5.1225 11.0353 4.44089e-016 103.797 1.28397 1.98785e-016 2.38542e-015 1.59028e-015 0 10.1816 0.1315 2.23433 5.112 -1.86761 -1.77636e-015 10.0835 -1.0008 1.07073 1.83186 -2.85765 0 9.1 -1.3734 1.09988 1.78485 -2.8182 -1.77636e-015 16.6717 -2.5162 -1.39121 -1.89284 0.599065 8.88178e-016 9.6179 1.685 -1.39121 -1.89288 0.599064 -4.44089e-016 7.59293 2.585 -1.39124 -1.8929 0.599064 3.0676 -1.18343 6.6986 -1.98785e-016 -1.59028e-015 -0 -3.0676 -1.18343 6.6985 -1.98785e-016 -1.59028e-015 -0 4.5704 10.946 -2.628 0.765036 0.366711 -0.794283 10.5924 -0.5246 -2.2321 -57.2143 -14.8943 -28.1845 27.8415 -0.0001 7.10543e-015 -10.3941 -8.1127 -103.818 28.3288 -1.42109e-014 -7.10543e-015 -35.0757 -69.6622 -36.7341 2.4661 -1.575 2.6824 10.953 9.79384 14.1971 3.2298 -1.8647 1.8647 -0.0144705 1.37665 5.90376 9.1093 -0.5171 2.2601 -77.2046 -4.64394 5.52071 3.6764 2.84217e-014 1.42109e-014 -78.7377 -4.71281 5.74252 9.5334 0 1.42109e-014 -71.0082 -6.81894 1.85452 3.6982 0 -1.42109e-014 -62.4287 -3.14543 5.18866 9.1045 -0.0439 -1.8651 -79.3152 -7.74019 1.6962 3.154 0 0 -57.4228 -2.70251 4.93176 8.0778 -0.4887 -3.8061 -77.6559 -9.65966 -0.780059 3.6 0 0 -89.0686 -5.76046 5.85458 -4.57 10.9462 -2.628 7.78991 -0.437681 -4.67388 -10.5928 -0.5248 -2.2321 48.574 -16.4274 29.4223 -27.8415 0 -7.10543e-015 11.6679 -7.73973 112.972 -28.3288 0 0.0001 43.5466 -58.6807 42.2154 -8.0767 -0.4885 -3.806 71.6054 -9.45137 7.68703 -3.6 -1.42109e-014 0.0001 85.5189 -1.03565 -2.94004 -9.1036 -0.0439 -1.8651 73.5246 -4.43622 -0.927673 -3.154 -1.42109e-014 0 55.3335 0.410991 -2.42507 -9.5325 -3.55271e-015 0 66.6667 -3.59714 -2.47812 -3.6982 0 0 61.3828 0.145979 -2.58844 -9.1083 -0.5168 2.2601 75.0136 3.5993 -1.61169 -3.6764 2.84217e-014 1.42109e-014 77.1696 -0.612016 -2.87527 -2.4648 -1.5727 2.6826 -10.7194 8.50092 -14.3483 -3.2298 -1.8647 1.8647 -0.891361 1.80641 -7.29773 8.2078 -6.7517 -1.5996 3.50532 7.82095 8.83032 3.55271e-015 -44.3705 0.2846 9.05791 31.2044 -4.67037 -3.55271e-015 -44.4279 -2.9822 2.49918 22.4685 -2.27653 -8.2078 -6.7517 -1.5996 -8.09624 -40.1892 -7.45873 0 -44.3705 0.2862 -2.5591 46.7035 -6.00066 0 -44.4277 -2.9838 -3.92898 -6.19169 2.16169 
3.41458 -1.58464 -5.13702 1.3657 3.47004 13.8783 0 103.797 1.28397 9.93923e-017 -1.19271e-015 1.59028e-015 8.88178e-016 10.1816 0.1315 3.2244 6.29921 -1.13877 0 10.0835 -1.0008 0.452409 2.86598 -2.12123 3.55271e-015 9.1 -1.3734 0.490211 2.80288 -2.09524 0 16.6717 -2.5162 -1.69547 -1.27361 0.291039 -8.88178e-016 9.6179 1.685 -1.69548 -1.27364 0.291037 4.44089e-016 7.59293 2.585 -1.69549 -1.27365 0.291036 3.0676 -1.18343 6.6986 -3.97569e-016 -3.18055e-015 -0 -3.0676 -1.18343 6.6985 -3.97569e-016 -3.18055e-015 -0 4.5704 10.946 -2.628 1.95679 0.788359 -5.10751 10.5924 -0.5246 -2.2321 -55.9078 -17.3001 -43.399 27.8415 -0.0001 7.10543e-015 -9.23295 -8.35224 -95.6636 28.3288 1.42109e-014 -1.42109e-014 -36.0638 -70.2346 -37.7368 2.4661 -1.575 2.6824 9.57007 9.37347 12.3277 3.2298 -1.8647 1.8647 0.158609 1.64323 6.11798 9.1093 -0.5171 2.2601 -66.3522 -2.89253 5.45118 3.6764 2.84217e-014 1.42109e-014 -72.2941 -4.07534 5.57737 9.5334 0 0 -62.2155 -5.71152 2.78331 3.6982 0 0 -57.9754 -2.75021 4.96203 9.1045 -0.0439 -1.8651 -71.6167 -6.71328 3.10981 3.154 0 0 -53.6287 -2.38261 4.71198 8.0778 -0.4887 -3.8061 -70.2067 -9.34908 1.3621 3.6 0 0 -83.252 -5.16817 5.81502 -4.57 10.9462 -2.628 5.54445 -0.296759 -4.04226 -10.5928 -0.5248 -2.2321 48.6114 -22.304 40.4901 -27.8415 0 -1.42109e-014 11.0272 -7.98495 108.282 -28.3288 0 0.0001 45.3629 -61.6334 44.6762 -8.0767 -0.4885 -3.806 63.1458 -11.694 2.31182 -3.6 0 0.0001 78.4989 -0.677726 -2.88969 -9.1036 -0.0439 -1.8651 63.9843 -3.26927 -3.13749 -3.154 0 1.42109e-014 50.7872 0.598026 -2.28436 -9.5325 -3.55271e-015 0 56.3779 -2.6834 -2.31945 -3.6982 -1.42109e-014 0 56.1527 0.376186 -2.44879 -9.1083 -0.5168 2.2601 62.8709 6.1069 1.78514 -3.6764 0 7.10543e-015 68.6741 -0.194019 -2.74685 -2.4648 -1.5727 2.6826 -10.4872 7.34068 -11.6043 -3.2298 -1.8647 1.8647 -0.988146 1.87568 -7.23454 8.2078 -6.7517 -1.5996 3.67026 -5.43362 7.8281 -3.55271e-015 -44.3705 0.2846 6.16741 51.8346 -1.02296 0 -44.4279 -2.9822 2.42924 31.7827 -2.03696 -8.2078 -6.7517 -1.5996 -7.05462 -30.1041 -6.49183 0 -44.3705 0.2862 -3.12903 29.133 -7.59007 0 -44.4277 -2.9838 1.28692 14.6371 -1.94435 
2.48347 1.6927 -3.89659 1.00128 2.53673 13.9475 -4.44089e-016 103.797 1.28397 3.97569e-016 0 4.77083e-015 4.44089e-016 10.1816 0.1315 2.89145 6.32651 -0.0648648 0 10.0835 -1.0008 0.697756 4.6432 -1.32763 0 9.1 -1.3734 0.735488 4.58944 -1.31049 -1.77636e-015 16.6717 -2.5162 -1.93013 -0.684511 0.227159 -8.88178e-016 9.6179 1.685 -1.93013 -0.684503 0.227155 0 7.59293 2.585 -1.93013 -0.684499 0.227144 3.0676 -1.18343 6.6986 -7.95139e-016 -1.59028e-015 1.59028e-015 -3.0676 -1.18343 6.6985 -7.95139e-016 -1.59028e-015 1.59028e-015 4.5704 10.946 -2.628 5.07681 0.612836 -6.8209 10.5924 -0.5246 -2.2321 -57.4776 -20.9826 -57.9103 27.8415 -0.0001 0 -8.02255 -8.39155 -87.4139 28.3288 0 0 -35.5043 -69.2097 -37.5415 2.4661 -1.575 2.6824 8.15241 8.68406 10.3386 3.2298 -1.8647 1.8647 0.365803 1.96718 6.3756 9.1093 -0.5171 2.2601 -53.3152 -0.921298 5.44318 3.6764 -2.84217e-014 -1.42109e-014 -64.6038 -3.34462 5.28799 9.5334 3.55271e-015 -1.42109e-014 -51.3904 -4.34297 3.86547 3.6982 0 -1.42109e-014 -52.6687 -2.3041 4.65302 9.1045 -0.0439 -1.8651 -61.8785 -5.40692 4.64563 3.154 1.42109e-014 -1.42109e-014 -49.1994 -2.02865 4.42926 8.0778 -0.4887 -3.8061 -60.6831 -8.72616 3.55402 3.6 0 1.42109e-014 -76.4977 -4.48936 5.69316 -4.57 10.9462 -2.628 0.908619 -0.697944 -7.52119 -10.5928 -0.5248 -2.2321 53.1044 -24.9245 56.6875 -27.8415 -1.42109e-014 0 9.46979 -8.33209 97.3427 -28.3288 0 0.0001 48.4803 -64.4449 48.7351 -8.0767 -0.4885 -3.806 51.8004 -14.6361 -5.35076 -3.6 -1.42109e-014 0.0001 69.9755 -0.255826 -2.7701 -9.1036 -0.0439 -1.8651 52.3332 -1.68923 -6.612 -3.154 2.84217e-014 1.42109e-014 45.679 0.794073 -2.10927 -9.5325 -7.10543e-015 1.42109e-014 43.7336 -1.44172 -2.90041 -3.6982 -1.42109e-014 1.42109e-014 49.786 0.637655 -2.25144 -9.1083 -0.5168 2.2601 47.935 8.01414 4.7316 -3.6764 2.84217e-014 1.42109e-014 58.3754 0.279824 -2.51067 -2.4648 -1.5727 2.6826 -10.1103 6.64821 -9.34306 -3.2298 -1.8647 1.8647 -1.10521 1.95938 -7.15811 8.2078 -6.7517 -1.5996 4.7714 -20.1308 10.2414 0 -44.3705 0.2846 1.02966 72.5493 3.47784 0 -44.4279 -2.9822 1.7242 33.0823 -1.71724 -8.2078 -6.7517 -1.5996 -4.93147 -24.0766 -6.12278 0 -44.3705 0.2862 -1.99694 17.8914 -8.39902 8.88178e-016 -44.4277 -2.9838 3.28865 26.1779 -0.538263 
